<svg height="16" viewBox="0 0 4.2333332 4.2333333" width="16" xmlns="http://www.w3.org/2000/svg"><circle cx="2.116667" cy="2.116667" fill="none" r="1.927347" stroke="#7fd6fd" stroke-width=".182111"/><g stroke-linecap="round"><path d="m9.8004505 10.047739q.1890472 0 .3150785.135034.135034.126031.135034.315078 0 .189048-.135034.324081-.1260313.126032-.3150785.126032h-2.2505627q-.3690923 0-.7021755-.144036-.324081-.144036-.5671418-.387097-.2430608-.243061-.3870968-.5671418-.144036-.3330832-.144036-.7021755v-5.4013503q0-.3690923.144036-.6931733.144036-.3330833.3870968-.5761441.2430608-.2430607.5671418-.3870968.3330832-.144036.7021755-.144036h2.2505627q.1890472 0 .3150785.1350338.135034.1260315.135034.3150788 0 .1890472-.135034.324081-.1260313.1260315-.3150785.1260315h-2.2505627q-.3780945 0-.6391598.2610653-.1260315.1260315-.1980495.2970742-.063016.1620405-.063016.3420856v5.4013503q0 .3780945.2610652.6391598.2610653.2610655.6391598.2610655z" fill="#7fd6fd" stroke="#7fd6fd" stroke-linejoin="round" stroke-width=".377953" transform="matrix(.26458333 0 0 .26458333 0 .385197)"/><path d="m3.1016403 4.1033029h-.1135806q-.1355399 0-.220347-.085824-.08405-.084966-.08405-.246316v-.1278786q0-.1450432-.062848-.2265764-.062848-.082391-.1923303-.082391h-.0386182v-.1338863h.038617q.1294823 0 .1923305-.081533.062848-.082392.062848-.2274346v-.1278786q0-.1613499.08405-.2463159.084807-.085824.220347-.085824h.1135806v.1184376h-.086321q-.1029803 0-.1499269.05407-.04619.054069-.04619.1742236v.1501926q0 .1192958-.058305.200829-.058305.080676-.1620422.1278783v.020598q.1037378.047203.1620422.1287367.058305.080674.058305.1999707v.1501928q0 .1201539.04619.1742234.046946.054069.1499269.054069h.086321zm.9949693-.7689863h-.038617q-.1294824 0-.1923305.082391-.062848.081533-.062848.2265764v.1278788q0 .1613498-.084807.2463161-.08405.085824-.2195899.085824h-.1135817v-.1184377h.086321q.1029802 0 .1491696-.054069.046946-.05407.046946-.1742234v-.150193q0-.1192958.058305-.1999707.058305-.081533.1620421-.1287367v-.0205978q-.1037358-.0472034-.1620407-.1278784-.058305-.0815331-.058305-.200829v-.1501926q0-.1201541-.046946-.1742235-.04619-.05407-.1491696-.05407h-.0863214v-.1184375h.1135806q.1355399 0 .2195899.085824.084807.084966.084807.2463159v.1278795q0 .1450431.062848.2274346.062848.081533.1923304.081533h.038617z" fill="#fd6d40" stroke="#fd6d40" stroke-width=".063531"/></g></svg>