<svg height="16" viewBox="0 0 4.2333332 4.2333333" width="16" xmlns="http://www.w3.org/2000/svg"><circle cx="2.116667" cy="2.116667" fill="none" r="1.927347" stroke="#7fd6fd" stroke-width=".182111"/><g stroke-linecap="round"><path d="m9.9714982 2.4318348q.1800448.072018.2430608.2430607.07202.1710428 0 .3420856-.07202.180045-.2430608.252063-.1710428.063016-.3420856-.009-1.008252-.4141035-2.0795198-.4141035-.2790698 0-.5311328.108027-.2430608.108027-.4231058.288072-.180045.180045-.288072.432108-.108027.2430608-.108027.5221306 0 .3870968.1980495.7111778.2070518.3150787.5491373.4951238l2.5206301 1.2873218q.5581399.2790698.8912229.8102025.342085.5491373.342085 1.1972994 0 .4591147-.171042.8732183-.171043.4051012-.486122.7201802-.3150786.315078-.7291821.486121-.4051013.171043-.8642161.171043-.8012003 0-1.5573893-.252063-.7471868-.252065-1.4133534-.7381868-.1530382-.108027-.180045-.288072-.0270067-.1890472.0900225-.3420855.108027-.1530383.2880721-.180045.1890472-.027007.3420855.090022 1.0982745.8102033 2.4306076.8102033.2790698 0 .5221306-.1080278.252063-.108027.432108-.288072.180045-.180045.288072-.4231058.108027-.252063.108027-.5311327 0-.3870968-.1980495-.7021756-.1980495-.324081-.540135-.504126h-.009l-2.5206324-1.2873213h.009q-.5581373-.2700676-.9002229-.8102026-.3420855-.5491373-.3420855-1.1972993 0-.4591148.1710428-.8642161.1710427-.4141035.4861215-.7291823.3150788-.3150787.7201801-.4861215.4141035-.1710428.8732183-.1710428 1.2693173 0 2.4216054.4861216z" fill="#7fd6fd" stroke="#7fd6fd" stroke-linejoin="round" stroke-width=".377953" transform="matrix(.26458333 0 0 .26458333 0 .385197)"/><path d="m3.1016403 4.1033029h-.1135806q-.1355399 0-.220347-.085824-.08405-.084966-.08405-.246316v-.1278786q0-.1450432-.062848-.2265764-.062848-.082391-.1923303-.082391h-.0386182v-.1338863h.038617q.1294823 0 .1923305-.081533.062848-.082392.062848-.2274346v-.1278786q0-.1613499.08405-.2463159.084807-.085824.220347-.085824h.1135806v.1184376h-.086321q-.1029803 0-.1499269.05407-.04619.054069-.04619.1742236v.1501926q0 .1192958-.058305.200829-.058305.080676-.1620422.1278783v.020598q.1037378.047203.1620422.1287367.058305.080674.058305.1999707v.1501928q0 .1201539.04619.1742234.046946.054069.1499269.054069h.086321zm.9949693-.7689863h-.038617q-.1294824 0-.1923305.082391-.062848.081533-.062848.2265764v.1278788q0 .1613498-.084807.2463161-.08405.085824-.2195899.085824h-.1135817v-.1184377h.086321q.1029802 0 .1491696-.054069.046946-.05407.046946-.1742234v-.150193q0-.1192958.058305-.1999707.058305-.081533.1620421-.1287367v-.0205978q-.1037358-.0472034-.1620407-.1278784-.058305-.0815331-.058305-.200829v-.1501926q0-.1201541-.046946-.1742235-.04619-.05407-.1491696-.05407h-.0863214v-.1184375h.1135806q.1355399 0 .2195899.085824.084807.084966.084807.2463159v.1278795q0 .1450431.062848.2274346.062848.081533.1923304.081533h.038617z" fill="#fd6d40" stroke="#fd6d40" stroke-width=".063531"/></g></svg>