<svg height="16" viewBox="0 0 4.2333332 4.2333333" width="16" xmlns="http://www.w3.org/2000/svg"><circle cx="2.116667" cy="2.116667" fill="none" r="1.927347" stroke="#7fd6fd" stroke-width=".182111"/><g stroke-linecap="round"><path d="m8.0498882 1.9457132q.1890472 0 .3150787.1350338.1350338.1260315.1350338.3150788 0 .1890472-.1350338.324081-.1260315.1260315-.3150787.1260315h-1.8004502v7.6519127q0 .189048-.1350337.324081-.1260315.126032-.3150788.126032-.1890472 0-.324081-.126032-.1260315-.135033-.1260315-.324081v-7.6519127h-1.8004501q-.1890473 0-.324081-.1260315-.1260316-.1350338-.1260316-.324081 0-.1890473.1260316-.3150788.1350337-.1350338.324081-.1350338zm4.4013398 2.7006752q.189047 0 .315079.1350338.135033.1260315.135033.3150787 0 .1890473-.135033.3240811-.126032.1260315-.315079.1260315h-1.350338v4.9512375q0 .189048-.135033.324081-.126032.126032-.315079.126032-.189047 0-.324081-.126032-.126032-.135033-.126032-.324081v-4.9512375h-.4501123q-.1890472 0-.324081-.1260315-.1260315-.1350338-.1260315-.3240811 0-.1890472.1260315-.3150787.1350338-.1350338.324081-.1350338h.4501123v-2.2505626q0-.1890473.126032-.3150788.135034-.1350338.324081-.1350338.189047 0 .315079.1350338.135033.1260315.135033.3150788v2.2505626z" fill="#7fd6fd" stroke="#7fd6fd" stroke-linejoin="round" stroke-width=".377953" transform="matrix(.26458333 0 0 .26458333 .130149 .385197)"/><path d="m3.1058123 4.1074752h-.1135806q-.1355399 0-.220347-.085824-.08405-.084966-.08405-.246316v-.1278786q0-.1450432-.062848-.2265764-.0628477-.0823909-.1923303-.0823909h-.0386182v-.1338864h.038617q.1294823 0 .1923305-.081533.062848-.082392.062848-.2274346v-.1278786q0-.1613499.08405-.2463159.084807-.085824.220347-.085824h.1135806v.1184376h-.086321q-.1029803 0-.1499269.05407-.04619.054069-.04619.1742236v.1501926q0 .1192958-.058305.200829-.058305.080676-.1620422.1278783v.020598q.1037378.047203.1620422.1287367.058305.080674.058305.1999707v.1501928q0 .1201539.04619.1742234.046946.054069.1499269.054069h.086321zm.9949693-.7689863h-.038617q-.1294824 0-.1923305.082391-.062848.081533-.062848.2265764v.1278788q0 .1613498-.084807.2463161-.08405.085824-.2195899.085824h-.1135817v-.1184377h.086321q.1029802 0 .1491696-.054069.046946-.05407.046946-.1742234v-.150193q0-.1192958.058305-.1999707.058305-.081533.1620421-.1287367v-.0205978q-.1037358-.0472034-.1620407-.1278784-.058305-.0815331-.058305-.200829v-.1501926q0-.1201541-.046946-.1742235-.04619-.05407-.1491696-.05407h-.0863214v-.1184375h.1135806q.1355399 0 .2195899.085824.084807.084966.084807.2463159v.1278795q0 .1450431.062848.2274346.062848.081533.1923304.081533h.038617z" fill="#fd6d40" stroke="#fd6d40" stroke-width=".063531"/></g></svg>